<svg width="640" height="480" viewBox="0 0 640 480" fill="none" xmlns="http://www.w3.org/2000/svg">
  <rect width="640" height="480" rx="28" fill="#0F2138"/>
  <circle cx="500" cy="120" r="72" fill="#FF8A3D" fill-opacity="0.9"/>
  <path d="M130 360C130 286 188 228 262 228H278C352 228 410 286 410 360V392H130V360Z" fill="#2EC4B6"/>
  <circle cx="270" cy="176" r="72" fill="#F5F7FB"/>
  <path d="M214 170C214 132 242 104 280 104H284C322 104 350 132 350 170V188H214V170Z" fill="#17324D"/>
  <rect x="176" y="292" width="100" height="78" rx="16" fill="#FF8A3D"/>
  <rect x="312" y="286" width="96" height="84" rx="16" fill="#F5F7FB"/>
  <path d="M88 392H546" stroke="#F5F7FB" stroke-width="8" stroke-linecap="round"/>
  <path d="M442 268C442 220 478 184 526 184" stroke="#F5F7FB" stroke-width="10" stroke-linecap="round"/>
  <path d="M384 188C384 144 416 112 460 112" stroke="#FF8A3D" stroke-width="10" stroke-linecap="round"/>
</svg>
